<?xml version="1.0" encoding="UTF-8" standalone="no"?>
<!-- Created with Inkscape (http://www.inkscape.org/) -->

<svg
   width="210mm"
   height="297mm"
   viewBox="0 0 210 297"
   version="1.1"
   id="svg1"
   xml:space="preserve"
   inkscape:version="1.4.2 (ebf0e940, 2025-05-08)"
   sodipodi:docname="mercy.svg"
   xmlns:inkscape="http://www.inkscape.org/namespaces/inkscape"
   xmlns:sodipodi="http://sodipodi.sourceforge.net/DTD/sodipodi-0.dtd"
   xmlns="http://www.w3.org/2000/svg"
   xmlns:svg="http://www.w3.org/2000/svg"><sodipodi:namedview
     id="namedview1"
     pagecolor="#ffffff"
     bordercolor="#000000"
     borderopacity="0.25"
     inkscape:showpageshadow="2"
     inkscape:pageopacity="0.0"
     inkscape:pagecheckerboard="0"
     inkscape:deskcolor="#d1d1d1"
     inkscape:document-units="mm"
     inkscape:zoom="0.30172602"
     inkscape:cx="1289.2491"
     inkscape:cy="1214.6781"
     inkscape:window-width="2000"
     inkscape:window-height="1222"
     inkscape:window-x="59"
     inkscape:window-y="30"
     inkscape:window-maximized="0"
     inkscape:current-layer="layer1" /><defs
     id="defs1" /><g
     inkscape:label="Capa 1"
     inkscape:groupmode="layer"
     id="layer1"><path
       style="fill:#000000;stroke-width:0.264583"
       d="m 105.41186,293.9024 c 0,-0.42029 -4.74374,-9.84277 -6.804421,-13.51556 -0.7348,-1.30968 -2.106242,-3.86953 -3.047629,-5.68854 -4.659154,-9.00284 -11.995441,-23.02692 -13.705919,-26.20031 -2.813738,-5.22023 -5.750296,-10.75806 -9.11614,-17.19135 -1.636897,-3.1287 -4.127076,-7.83167 -5.533733,-10.45104 -1.406658,-2.61938 -3.404606,-6.42938 -4.439894,-8.46667 -1.035315,-2.03729 -2.713011,-5.25198 -3.728244,-7.14375 -1.015259,-1.89177 -3.033262,-5.70177 -4.484475,-8.46667 -1.451214,-2.76489 -2.908009,-5.50333 -3.237283,-6.08541 -0.329301,-0.58209 -2.181146,-4.15396 -4.115224,-7.9375 -1.934051,-3.78355 -3.603386,-6.99823 -3.709617,-7.14375 -0.10623,-0.14552 -1.537229,-2.82443 -3.180027,-5.95313 -1.642824,-3.1287 -3.862017,-7.35542 -4.931595,-9.39271 -3.211391,-6.11701 -8.50338,-16.69036 -10.329119,-20.6375 -2.008481,-4.34223 -6.26909,-15.256 -7.436897,-19.05 -5.139127,-16.69611 -5.616483,-32.112106 -1.503686,-48.561016 2.916259,-11.663431 7.172497,-20.833681 14.306481,-30.82396 3.145454,-4.404797 5.870716,-7.480033 10.597947,-11.958894 5.119793,-4.850819 8.242987,-7.263596 14.42421,-11.143274 5.999956,-3.7659 17.656068,-8.9514145 22.723183,-10.1089725 0.509323,-0.116353 2.057136,-0.510357 3.439584,-0.875567 3.03485,-0.801738 7.213626,-1.553802 12.6424,-2.275292 6.160058,-0.818679 17.184398,-0.768075 23.870098,0.109572 11.53102,1.5137 20.36858,4.323199 30.50995,9.6992435 15.11657,8.013451 27.62494,20.42613 36.36635,36.088182 3.52615,6.317842 6.98217,15.243923 8.45148,21.828124 2.13301,9.558475 2.57127,13.262787 2.58238,21.828125 0.0101,7.724199 -0.0959,8.850949 -1.46709,15.610419 -1.68949,8.3284 -4.59094,17.15543 -8.70669,26.48834 -2.24587,5.09268 -15.17989,31.23393 -18.63794,37.66947 -0.81997,1.52599 -1.86973,3.77198 -2.33281,4.9911 -0.4631,1.21912 -1.00531,2.27926 -1.20491,2.35585 -0.42132,0.16166 -7.48199,-2.1187 -29.15655,-9.41668 -5.60255,-1.88642 -11.31755,-3.75864 -12.7,-4.16049 -1.38245,-0.40188 -2.66753,-0.86971 -2.85576,-1.03965 -0.3698,-0.33391 0.39908,-2.77646 9.87018,-31.35567 2.53182,-7.63984 4.89678,-14.84312 5.25545,-16.00729 0.35864,-1.16417 1.257,-3.84254 1.99633,-5.95193 0.73932,-2.10941 1.34422,-4.11342 1.34422,-4.45336 v -0.61806 l -0.8599,0.52003 c -1.37036,0.82873 -19.86701,10.14981 -23.21719,11.69992 -1.67349,0.77433 -3.93567,1.90863 -5.02708,2.52066 -3.14976,1.76633 -6.79085,3.55878 -7.22913,3.55878 -0.26072,0 -1.583217,-2.35066 -3.758595,-6.68073 -1.845997,-3.6744 -4.772368,-9.49955 -6.503061,-12.94479 -2.424218,-4.82585 -3.146716,-6.50304 -3.146716,-7.304816 0,-0.5724 0.482944,-2.337467 1.073203,-3.922374 0.590259,-1.584904 2.308781,-6.730259 3.818916,-11.434117 2.722801,-8.481115 3.316579,-9.960318 3.922131,-9.770586 0.17264,0.05409 0.573616,0.627026 0.89109,1.273199 0.317474,0.646171 1.59213,3.258452 2.832602,5.805067 2.94328,6.042419 9.07881,18.018421 9.39123,18.330827 0.14896,0.14897 6.51489,-2.885034 16.34336,-7.789266 18.06305,-9.013143 20.15937,-10.011132 21.03776,-10.015387 0.33981,-0.0016 1.74893,0.409001 3.13137,0.912551 1.38245,0.503549 5.25198,1.777068 8.59896,2.830044 3.34698,1.052973 6.18858,2.001604 6.31468,2.10807 0.20691,0.174673 -3.22815,11.167094 -5.57252,17.832538 -0.51184,1.45521 -1.52056,4.4913 -2.2416,6.74685 -0.72105,2.25558 -1.90895,5.82745 -2.63978,7.9375 -2.93571,8.47588 -10.92176,32.72674 -10.9348,33.20521 -0.004,0.14552 1.30524,0.69199 2.90935,1.21441 1.60412,0.5224 3.89224,1.32607 5.08469,1.78594 3.26975,1.26095 3.3238,1.24463 4.53104,-1.3684 0.56015,-1.21248 1.49662,-3.02818 2.08097,-4.03489 0.58439,-1.00672 3.39366,-6.47383 6.24285,-12.14914 7.49998,-14.93925 10.44043,-22.73385 12.57638,-33.33748 1.95398,-9.700352 1.22085,-20.140099 -2.26684,-32.279169 -1.72556,-6.005943 -4.82947,-12.611533 -8.85362,-18.841849 -2.70378,-4.186058 -7.91683,-10.189654 -12.06391,-13.893366 -5.47722,-4.891619 -8.82365,-7.223857 -14.68012,-10.231082 -7.56994,-3.887066 -13.25388,-5.775217 -22.55552,-7.492733 -2.79823,-0.516687 -4.06982,-0.586595 -10.71562,-0.589127 l -7.540627,-0.0029 -5.450099,0.979863 c -8.7444,1.572136 -11.663204,2.407793 -17.965526,5.143554 -7.731125,3.356001 -14.37849,7.615258 -20.957301,13.42826 -6.352038,5.612637 -12.278889,14.002016 -16.211894,22.947714 -1.301988,2.96137 -1.375833,3.139292 -1.682697,4.053742 -0.1465,0.436562 -0.527765,1.508125 -0.847275,2.38125 -1.405679,3.841488 -2.357438,7.842699 -3.146806,13.229166 -0.424313,2.895463 -0.543137,5.038768 -0.544275,9.817142 -0.0026,9.762955 1.029028,15.198295 4.964785,26.166185 2.025941,5.64575 8.09625,18.68085 8.493574,18.2387 0.122106,-0.13586 0.618596,-1.43766 1.103313,-2.89287 0.484717,-1.45521 2.394241,-7.05115 4.243361,-12.43542 1.84912,-5.38427 4.627086,-13.6591 6.173258,-18.38853 9.792282,-29.952835 15.675901,-47.440877 16.003693,-47.568097 0.370576,-0.14383 2.208954,0.421944 6.906181,2.125448 1.382448,0.501359 4.459393,1.484718 6.837627,2.185242 2.37826,0.700521 4.378642,1.415804 4.445291,1.589513 0.06668,0.17371 -0.246909,1.374971 -0.696833,2.669471 -1.855285,5.338033 -16.410755,49.093193 -17.02181,51.169243 -0.364067,1.23693 -1.196843,3.79678 -1.850575,5.68855 -1.656662,4.79382 -11.66495,35.30679 -12.332653,37.59935 -0.301254,1.03434 -0.547714,2.32648 -0.547714,2.87144 0,1.17007 1.262036,3.96278 3.830876,8.47712 0.993696,1.74625 3.139625,5.73485 4.768771,8.86354 1.629119,3.1287 3.768222,7.23636 4.75353,9.12813 0.985308,1.89177 2.41554,4.57068 3.178307,5.95312 0.762768,1.38245 3.147616,5.90683 5.299684,10.05417 8.284289,15.96504 10.827835,20.83324 11.819387,22.62188 0.564727,1.01864 1.810359,3.39989 2.768097,5.29166 1.901005,3.75494 6.55161,12.55316 7.97174,15.08125 0.49046,0.87313 1.32585,2.51024 1.85642,3.63802 0.53054,1.12779 1.02793,2.04909 1.10527,2.04732 0.23106,-0.005 4.92017,-9.17133 19.35395,-37.83221 2.45505,-4.87495 5.69971,-11.24479 7.21035,-14.15521 1.51066,-2.91042 4.37854,-8.47659 6.3731,-12.36927 2.12537,-4.14801 3.77931,-7.07761 3.99576,-7.07761 0.20312,0 1.47336,0.38077 2.82276,0.84614 1.3494,0.46538 5.0133,1.69537 8.142,2.73333 3.97303,1.31808 5.71317,2.01438 5.77024,2.30889 0.0449,0.23193 -1.96477,4.44902 -4.46598,9.37136 -6.76571,13.31462 -11.61203,22.81517 -13.60805,26.67674 -0.97785,1.89177 -3.68292,7.19005 -6.01128,11.77396 -2.32833,4.58391 -5.10008,10.00125 -6.15942,12.03854 -1.05931,2.03729 -5.13691,10.07401 -9.06132,17.85938 -7.79798,15.46989 -11.32938,22.34961 -12.64634,24.63696 -0.47053,0.81725 -0.93617,1.73998 -1.03473,2.05053 -0.19942,0.62827 -0.93729,0.7775 -0.93729,0.18952 z m 4.34364,-8.12112 c 1.39488,-2.67589 6.18199,-12.12808 10.63802,-21.00485 4.45604,-8.87677 8.88072,-17.56834 9.83266,-19.31459 0.95194,-1.74624 2.41901,-4.60374 3.26014,-6.34999 0.84117,-1.74625 2.62104,-5.2586 3.95534,-7.80521 1.33429,-2.54662 5.28587,-10.28568 8.78128,-17.19792 3.49541,-6.91224 7.70864,-15.21238 9.36273,-18.44474 1.6541,-3.23233 3.00744,-5.97302 3.00744,-6.09036 0,-0.24437 -15.79102,-5.54101 -15.96086,-5.35361 -0.0614,0.0677 -1.39438,2.6234 -2.96227,5.67934 -1.56792,3.05593 -3.9233,7.63984 -5.23415,10.18645 -4.32167,8.39566 -18.9698,37.36825 -18.9698,37.52041 0,0.082 -2.10391,4.17507 -4.67537,9.09563 -3.45385,6.60903 -4.79743,8.94646 -5.14255,8.94646 -0.327,0 -0.82447,-0.73429 -1.65807,-2.44739 -0.655,-1.34607 -1.86139,-3.69755 -2.68089,-5.22552 -3.70681,-6.9115 -4.4387,-8.29953 -6.277951,-11.90625 -1.711061,-3.35534 -10.367222,-19.81515 -13.566457,-25.79688 -0.622644,-1.16416 -2.373948,-4.55745 -3.891757,-7.54062 -1.517835,-2.98318 -3.35825,-6.49552 -4.089823,-7.80521 -0.731573,-1.30969 -2.972858,-5.53641 -4.980649,-9.39271 -2.00779,-3.8563 -4.571497,-8.67833 -5.69714,-10.71562 -2.781009,-5.03336 -4.92215,-9.35197 -5.136701,-10.36061 -0.253523,-1.19166 0.529961,-4.21862 2.997333,-11.58015 1.166944,-3.48168 2.061051,-6.42848 1.986915,-6.54844 -0.07414,-0.11996 -0.02434,-0.2181 0.110543,-0.2181 0.134937,0 0.450982,-0.73292 0.702336,-1.62872 0.46138,-1.64433 4.150572,-12.82533 14.609101,-44.27647 3.145367,-9.45885 5.731139,-17.376506 5.746141,-17.594787 0.01508,-0.218281 0.09504,-0.456406 0.17788,-0.529167 0.204867,-0.179964 6.131242,-18.016159 6.02181,-18.123423 -0.04784,-0.0469 -1.575276,-0.521767 -3.394286,-1.055267 -1.819011,-0.533501 -4.855104,-1.503971 -6.746875,-2.156603 -1.891771,-0.652632 -4.184042,-1.440939 -5.09397,-1.751796 -1.044443,-0.356822 -1.747017,-0.472559 -1.905635,-0.313928 -0.138192,0.138195 -2.280364,6.382695 -4.760383,13.876663 -2.480019,7.493968 -4.875266,14.696958 -5.322782,16.006646 -2.121535,6.208977 -4.722918,14.506632 -4.606845,14.694452 0.07115,0.11512 0.0282,0.24924 -0.09544,0.29805 -0.123666,0.0488 -1.539187,4.01781 -3.145631,8.82 -2.710709,8.10319 -8.783849,25.8652 -9.20488,26.92133 -0.101521,0.25467 -0.459873,0.46302 -0.796343,0.46302 -0.527765,0 -0.90088,-0.5902 -2.717959,-4.29947 -1.158399,-2.36472 -2.345716,-4.83527 -2.638451,-5.49011 -1.337866,-2.99262 -2.833026,-6.65496 -3.819975,-9.35694 -0.5919,-1.62038 -1.201129,-3.02654 -1.353873,-3.12475 -0.152718,-0.0982 -0.306626,-0.51493 -0.342001,-0.92604 -0.03537,-0.41111 -0.537342,-2.65248 -1.115483,-4.98079 -1.655561,-6.66743 -1.899557,-8.82002 -1.904664,-16.803261 -0.005,-7.778798 0.409414,-11.682487 1.85352,-17.460283 3.03284,-12.134458 9.331643,-23.937343 17.067953,-31.982446 8.44595,-8.783047 18.445771,-15.132235 30.564296,-19.406169 3.734806,-1.31718 8.009282,-2.230313 15.742708,-3.363015 17.710498,-2.594028 37.433468,2.276535 51.726048,12.773697 12.92952,9.496062 22.87032,23.092383 27.11291,37.083142 2.67491,8.821009 3.71213,16.032943 3.5156,24.444068 -0.11142,4.767587 -0.23114,5.953967 -0.95147,9.428387 -2.32066,11.19369 -5.05767,18.39782 -12.91471,33.99315 -8.05688,15.99197 -9.20083,18.11213 -9.8231,18.2055 -0.29888,0.0449 -1.47646,-0.24836 -2.61684,-0.65161 -1.14038,-0.40323 -3.68078,-1.27336 -5.64531,-1.93363 -3.01053,-1.01182 -3.58473,-1.29066 -3.65363,-1.77445 -0.045,-0.31568 0.28911,-1.64513 0.74237,-2.95432 0.45328,-1.30918 0.84283,-2.62847 0.86566,-2.93174 0.0228,-0.30329 0.10928,-0.55142 0.19206,-0.55142 0.0828,0 0.31248,-0.56554 0.51041,-1.25677 0.58222,-2.03305 7.56822,-23.01166 8.4804,-25.46614 0.45969,-1.23693 1.23163,-3.55865 1.71543,-5.15938 0.48381,-1.60073 1.37588,-4.33915 1.98239,-6.0854 0.60647,-1.74625 1.64057,-4.84187 2.29796,-6.87916 0.65735,-2.03729 1.95995,-5.998416 2.89462,-8.802497 0.93469,-2.804083 1.69941,-5.215098 1.69941,-5.357812 0,-0.142716 -0.13649,-0.259485 -0.30331,-0.259485 -0.34055,0 -10.77815,-3.301637 -14.25387,-4.508804 -1.23974,-0.430575 -2.61787,-0.782862 -3.0625,-0.782862 -0.65368,0 -19.41481,9.11009 -35.63922,17.30582 l -1.26828,0.64067 -0.65577,-0.57272 c -0.36065,-0.315 -1.82555,-2.894448 -3.2553,-5.732104 -1.42976,-2.837656 -3.67146,-7.242969 -4.9816,-9.789583 -1.310144,-2.546615 -2.846395,-5.67091 -3.413926,-6.942876 -0.567505,-1.271968 -1.093443,-2.313765 -1.168717,-2.315104 -0.240083,-0.0043 -1.252432,2.858252 -3.461227,9.787147 -1.182925,3.710781 -2.684727,8.175624 -3.337321,9.921874 -0.652595,1.74625 -1.230022,3.600829 -1.283124,4.121288 -0.07874,0.771548 0.33446,1.797528 2.237714,5.556248 1.283864,2.53548 4.200419,8.33041 6.481233,12.87759 l 4.146948,8.26768 2.8357,-1.50765 c 7.41966,-3.94481 33.81793,-16.94972 34.01502,-16.75727 0.35078,0.34254 -0.30551,2.99994 -1.71011,6.92445 -0.71009,1.98403 -1.29108,3.75047 -1.29108,3.92539 0,0.17494 -2.03828,6.40974 -4.52949,13.85514 -2.49121,7.44543 -4.54504,13.71571 -4.56406,13.93399 -0.019,0.21828 -0.0983,0.45641 -0.17626,0.52917 -0.10795,0.10078 -4.73904,14.05125 -6.06978,18.28435 -0.11923,0.37928 -0.13965,0.80158 -0.0454,0.9385 0.0943,0.1369 1.48111,0.64365 3.08184,1.12607 1.60073,0.48244 5.30884,1.68761 8.24026,2.67816 2.9314,0.99055 5.61031,1.84039 5.95313,1.88852 0.34279,0.0481 0.68281,0.14705 0.75557,0.21981 0.17121,0.17122 4.8841,1.82912 9.92187,3.49033 11.64408,3.83966 15.19886,4.97634 15.56285,4.97634 0.25127,0 0.57076,-0.52067 0.85235,-1.38906 0.24776,-0.76399 1.97194,-4.36563 3.83157,-8.00365 8.78075,-17.1782 14.67413,-29.11959 17.23633,-34.925 2.80329,-6.35166 6.3414,-16.0792 6.10021,-16.77172 -0.0704,-0.20217 -0.0135,-0.29687 0.1262,-0.21045 0.30523,0.18865 2.15855,-7.16143 3.12328,-12.38656 1.53699,-8.32469 1.45444,-17.08996 -0.25662,-27.251937 -0.51456,-3.055855 -0.93554,-5.652492 -0.93554,-5.7703 0,-0.117811 -0.0893,-0.159777 -0.19844,-0.09326 -0.10914,0.06652 -0.22357,-0.31755 -0.25429,-0.853485 -0.0915,-1.595921 -1.80266,-7.15278 -3.53214,-11.470108 -2.23877,-5.588635 -3.10435,-7.407751 -5.69838,-11.975494 C 171.35014,28.152047 150.30071,12.415175 126.61314,7.0881715 113.42776,4.1229625 99.844184,4.0354545 85.700379,6.8245985 74.212224,9.0900545 62.892185,13.842481 52.759755,20.65388 c -5.510769,3.70455 -8.992394,6.614247 -14.2875,11.940561 -8.293902,8.342741 -16.019031,21.151762 -19.792879,32.818463 -1.517962,4.692727 -3.552332,13.166032 -3.874979,16.139584 -0.07105,0.654843 -0.251621,2.262187 -0.401261,3.571875 -0.149643,1.309687 -0.34557,4.405312 -0.435396,6.879166 -0.383913,10.573221 2.089634,23.383621 6.896888,35.718731 0.680551,1.74625 1.53321,3.97944 1.894798,4.96266 1.508641,4.1022 10.200817,21.76706 16.631039,33.7988 2.067401,3.86834 3.660351,6.87234 5.962888,11.24479 0.689689,1.30969 2.532327,4.88156 4.094771,7.9375 1.562417,3.05594 2.930683,5.67531 3.040591,5.82084 0.109908,0.14552 1.186948,2.16958 2.393448,4.49791 1.2065,2.32834 2.493539,4.76912 2.860093,5.42396 0.366553,0.65484 1.437507,2.67891 2.3799,4.49792 3.022494,5.83403 9.20533,17.56029 9.835145,18.65312 0.335438,0.58209 2.005673,3.73724 3.711627,7.01146 1.705954,3.27422 4.052517,7.73906 5.21462,9.92188 4.83235,9.07682 6.434297,12.10627 8.394568,15.87499 1.13538,2.18282 2.567543,4.92125 3.182593,6.08542 0.615024,1.16417 2.224961,4.25979 3.577617,6.87917 1.352629,2.61937 4.092178,7.79859 6.087874,11.50937 1.99568,3.71078 4.08544,7.72819 4.64387,8.92755 l 1.01536,2.18069 0.71695,-1.15189 c 0.39433,-0.63354 1.85822,-3.34123 3.2531,-6.01712 z"
       id="path1"
       sodipodi:nodetypes="ssssssssssssscsssccsssssssscsssssssssssscsscssssssssssscssssssssssssssssssccssssscscsssscsssccscssssssssssscssssssscssssssssssssssssscssssssssssscssssscssssssscsssssscsssccccssssscscsssssscssscssssssccssscssssscsssssssscssssssscsscsssssscssscssssssssssssssssssssscsss" /><path
       style="fill:#6b278a;fill-opacity:1;stroke-width:3.31427"
       d="M 362.90208,1031.3883 C 343.09414,993.66143 294.17058,900.90009 254.18304,825.25199 108.05847,548.81472 85.257085,501.88293 67.785711,441.59291 35.004924,328.47325 67.915052,203.82391 152.73243,119.85144 255.18229,18.422127 422.60376,-9.4886951 548.51086,53.871237 c 66.5119,33.470624 125.6023,93.919853 155.89107,159.475893 20.77417,44.96298 28.52372,78.06591 30.35863,129.6793 1.86931,52.58237 -3.05038,82.30493 -22.46578,135.72777 -13.72009,37.7518 -94.41264,200.67013 -99.3908,200.67013 -3.32182,0 -155.66469,-49.62757 -158.21148,-51.53937 -0.56044,-0.42068 15.02658,-49.34752 34.63779,-108.72629 19.6112,-59.37877 34.53944,-109.07872 33.17387,-110.4443 -1.36558,-1.36558 -33.15429,12.83118 -70.64154,31.54832 -37.48725,18.71715 -68.56658,33.57868 -69.06514,33.02563 -0.4986,-0.55306 -11.44054,-22.08915 -24.31547,-47.85802 l -23.40896,-46.85244 13.83834,-41.80414 c 7.61109,-22.99227 14.68662,-41.80413 15.72341,-41.80413 1.03678,0 8.53039,13.65374 16.65247,30.34164 8.12207,16.6879 18.84988,36.84401 23.83957,44.79135 l 9.07217,14.44974 37.32754,-18.72491 c 20.53015,-10.29871 52.31187,-25.74157 70.62603,-34.31749 l 33.29849,-15.59258 32.13677,10.24028 32.13677,10.24028 -39.73698,119.31354 c -21.85532,65.62245 -39.74268,121.71655 -39.7497,124.65355 -0.0132,5.53125 31.08913,19.51698 43.40305,19.51698 4.98634,0 13.5338,-14.57014 39.37181,-67.11387 44.6511,-90.80174 51.07074,-112.69982 51.25226,-174.82748 0.15706,-53.75428 -5.61811,-81.44098 -25.09446,-120.30511 C 600.16667,139.85049 508.37279,82.348373 401.54061,82.513497 270.91667,82.715395 168.50001,153.81134 128.90916,271.76973 c -18.17778,54.15954 -17.07213,130.95222 2.60065,180.62745 10.90663,27.54008 35.45282,77.88523 37.97357,77.88523 4.59146,0 7.76007,-8.72567 57.4686,-158.25616 26.81417,-80.66093 50.38878,-146.65623 52.38801,-146.65623 9.32087,0 58.72771,18.38755 57.56584,21.42405 -6.27437,16.39775 -117.92562,357.16677 -119.60154,365.03394 -1.73558,8.14726 0.46799,15.39088 10.5864,34.79978 40.18904,77.08974 167.68709,319.68343 168.59049,320.78132 3.55018,4.31441 16.75938,-19.35969 75.7583,-135.77722 36.1247,-71.28179 67.4338,-130.27574 69.57574,-131.09768 3.06792,-1.17729 50.20319,13.59257 54.00552,16.92264 1.34125,1.17467 -191.65596,379.28215 -194.49122,381.03445 -1.32716,0.8203 -18.6195,-29.3761 -38.42744,-67.103 z"
       id="path2"
       transform="scale(0.26458333)" /></g></svg>
